<svg width="79" height="33" viewBox="0 0 79 33" fill="none" xmlns="http://www.w3.org/2000/svg">
<path fill-rule="evenodd" clip-rule="evenodd" d="M2.38477 16.4678C2.38477 8.67214 8.70437 2.35254 16.5 2.35254C24.2956 2.35254 30.6152 8.67214 30.6152 16.4678C30.6152 23.9576 24.7817 30.085 17.4102 30.5541V30.583H2.38477V16.4814C2.38477 16.4768 2.38477 16.4723 2.38477 16.4678Z" fill="#007EFA"/>
<path fill-rule="evenodd" clip-rule="evenodd" d="M2.38477 16.4678C2.38477 8.67214 8.70437 2.35254 16.5 2.35254C24.2956 2.35254 30.6152 8.67214 30.6152 16.4678C30.6152 23.9576 24.7817 30.085 17.4102 30.5541V30.583H2.38477V16.4814C2.38477 16.4768 2.38477 16.4723 2.38477 16.4678Z" fill="#4BA6FF"/>
<mask id="mask0" mask-type="alpha" maskUnits="userSpaceOnUse" x="2" y="2" width="29" height="29">
<path fill-rule="evenodd" clip-rule="evenodd" d="M2.38477 16.4678C2.38477 8.67214 8.70437 2.35254 16.5 2.35254C24.2956 2.35254 30.6152 8.67214 30.6152 16.4678C30.6152 23.9576 24.7817 30.085 17.4102 30.5541V30.583H2.38477V16.4814C2.38477 16.4768 2.38477 16.4723 2.38477 16.4678Z" fill="white"/>
</mask>
<g mask="url(#mask0)">
<path fill-rule="evenodd" clip-rule="evenodd" d="M18.5404 48.6741C9.12013 8.66332 54.5033 9.89264 46.1459 -23.7797C37.7886 -57.452 25.4616 -17.2507 14.1554 -17.2507C2.84913 -17.2507 -4.9805 -16.3667 -6.31639 3.21156C-7.65228 22.7898 17.7986 75.7626 18.5404 48.6741Z" fill="#1F90FE"/>
<path fill-rule="evenodd" clip-rule="evenodd" d="M1.564 31.972C-3.96268 9.00609 41.395 11.1365 34.9493 -14.6058C28.5036 -40.3481 17.5843 -23.5105 6.28303 -23.5105C-5.01822 -23.5105 -14.1797 -14.3488 -14.1797 -3.04722C-14.1797 8.25434 7.09067 54.9379 1.564 31.972Z" fill="#007EFA"/>
</g>
<path d="M14.3825 25.5879C17.4347 25.5879 20.3676 23.3328 20.3676 19.3488V9.15234H16.2088C16.2088 9.15234 16.2088 17.7946 16.2088 19.2072C16.2088 20.6197 15.5968 21.5234 14.3825 21.5234C13.1681 21.5234 12.3752 20.4165 12.3752 19.2156H8.41113C8.41113 23.0685 11.4052 25.5879 14.3825 25.5879Z" fill="white"/>
<path d="M36.9184 6.67988H39.0688V12.5771H42.6962V14.2822H36.9184V6.67988ZM49.7474 12.6206V14.2822H43.6438V6.67988H49.6062V8.34154H45.7725V9.62307H49.1501V11.2304H45.7725V12.6206H49.7474ZM56.131 12.8052H52.9163L52.3189 14.2822H50.1251L53.481 6.67988H55.5988L58.9656 14.2822H56.7283L56.131 12.8052ZM55.5011 11.2196L54.5236 8.78682L53.5462 11.2196H55.5011ZM62.9952 12.2622H61.8223V14.2822H59.6719V6.67988H63.1472C63.8351 6.67988 64.4324 6.79573 64.9392 7.02742C65.446 7.25187 65.837 7.57768 66.1122 8.00486C66.3873 8.4248 66.5249 8.92076 66.5249 9.49275C66.5249 10.043 66.3945 10.5245 66.1339 10.9372C65.8805 11.3427 65.5148 11.6612 65.037 11.8929L66.6769 14.2822H64.3745L62.9952 12.2622ZM64.3528 9.49275C64.3528 9.13797 64.2405 8.86284 64.0161 8.66735C63.7916 8.47186 63.4586 8.37412 63.0169 8.37412H61.8223V10.6005H63.0169C63.4586 10.6005 63.7916 10.5064 64.0161 10.3181C64.2405 10.1227 64.3528 9.84752 64.3528 9.49275ZM75.041 6.67988V14.2822H73.2707L69.9148 10.2313V14.2822H67.8079V6.67988H69.5781L72.934 10.7308V6.67988H75.041ZM38.5801 27.4343C38.0226 27.4343 37.5158 27.3401 37.0596 27.1519C36.6035 26.9564 36.2306 26.6777 35.941 26.3156L37.1139 24.9255C37.5194 25.454 37.9574 25.7183 38.428 25.7183C38.7394 25.7183 38.9747 25.6242 39.134 25.4359C39.3005 25.2477 39.3838 24.9726 39.3838 24.6105V21.3415H36.7555V19.6799H41.5124V24.4802C41.5124 25.4649 41.2626 26.2034 40.7631 26.6958C40.2707 27.1881 39.5431 27.4343 38.5801 27.4343ZM47.995 25.8052H44.7803L44.183 27.2822H41.9891L45.345 19.6799H47.4628L50.8296 27.2822H48.5923L47.995 25.8052ZM47.3651 24.2196L46.3876 21.7868L45.4102 24.2196H47.3651ZM58.8226 19.6799L55.5645 27.2822H53.4467L50.1994 19.6799H52.5235L54.587 24.6323L56.6939 19.6799H58.8226ZM64.1927 25.8052H60.978L60.3807 27.2822H58.1869L61.5428 19.6799H63.6606L67.0273 27.2822H64.7901L64.1927 25.8052ZM63.5628 24.2196L62.5854 21.7868L61.6079 24.2196H63.5628Z" fill="#007EFA"/>
</svg>
