<svg width="67" height="26" viewBox="0 0 67 26" fill="none" xmlns="http://www.w3.org/2000/svg">
<path fill-rule="evenodd" clip-rule="evenodd" d="M0 12.832C0 5.7451 5.7451 0 12.832 0C19.919 0 25.6641 5.7451 25.6641 12.832C25.6641 19.641 20.3608 25.2113 13.6595 25.6378V25.6641H0V12.8444C1.93907e-06 12.8403 0 12.8361 0 12.832Z" fill="#007EFA"/>
<path fill-rule="evenodd" clip-rule="evenodd" d="M0 12.832C0 5.7451 5.7451 0 12.832 0C19.919 0 25.6641 5.7451 25.6641 12.832C25.6641 19.641 20.3608 25.2113 13.6595 25.6378V25.6641H0V12.8444C1.93907e-06 12.8403 0 12.8361 0 12.832Z" fill="#4BA6FF"/>
<mask id="mask0" mask-type="alpha" maskUnits="userSpaceOnUse" x="0" y="0" width="26" height="26">
<path fill-rule="evenodd" clip-rule="evenodd" d="M0 12.832C0 5.7451 5.7451 0 12.832 0C19.919 0 25.6641 5.7451 25.6641 12.832C25.6641 19.641 20.3608 25.2113 13.6595 25.6378V25.6641H0V12.8444C1.93907e-06 12.8403 0 12.8361 0 12.832Z" fill="white"/>
</mask>
<g mask="url(#mask0)">
<path fill-rule="evenodd" clip-rule="evenodd" d="M14.687 42.111C6.12317 5.73757 47.3806 6.85513 39.783 -23.7561C32.1854 -54.3672 20.9791 -17.8206 10.7007 -17.8206C0.422263 -17.8206 -6.69558 -17.017 -7.91003 0.781419C-9.12448 18.5798 14.0127 66.7369 14.687 42.111Z" fill="#1F90FE"/>
<path fill-rule="evenodd" clip-rule="evenodd" d="M-0.746214 26.9266C-5.77046 6.04847 35.4638 7.98517 29.604 -15.4169C23.7443 -38.819 13.8177 -23.5121 3.54382 -23.5121C-6.73004 -23.5121 -15.0587 -15.1832 -15.0587 -4.90909C-15.0587 5.36507 4.27804 47.8047 -0.746214 26.9266Z" fill="#007EFA"/>
</g>
<path d="M16.5603 15.9644L16.4833 15.9191L16.4392 15.9968C15.6756 17.3422 14.2212 18.2511 12.5669 18.2511C10.1127 18.2511 8.11279 16.2512 8.11279 13.797C8.11279 11.3428 10.1127 9.34283 12.5669 9.34283C14.221 9.34283 15.6754 10.2516 16.439 11.6152L16.4825 11.6929L16.5596 11.6484L18.9696 10.258L19.0455 10.2143L19.002 10.1383C17.7266 7.90621 15.3253 6.38623 12.5669 6.38623C8.47691 6.38623 5.15619 9.70695 5.15619 13.797C5.15619 17.887 8.47691 21.2077 12.5669 21.2077C15.3064 21.2077 17.7077 19.7066 18.9833 17.493L19.0268 17.4176L18.9518 17.3734L16.5603 15.9644Z" fill="white" stroke="white" stroke-width="0.175781"/>
<path fill-rule="evenodd" clip-rule="evenodd" d="M17.0085 13.4685H16.0674V14.178H17.0085V15.0648H17.9496V14.178H18.8907V13.4685H17.9496V12.5817H17.0085V13.4685ZM21.3375 14.178H22.2786V13.4685H21.3375V12.5817H20.5847V13.4685H19.4554V14.178H20.5847V15.0648H21.3375V14.178Z" fill="white"/>
<path d="M31.3942 3.84281H33.3491V9.20394H36.6467V10.754H31.3942V3.84281ZM43.0569 9.24343V10.754H37.5082V3.84281H42.9286V5.3534H39.4433V6.51844H42.5139V7.97967H39.4433V9.24343H43.0569ZM48.8601 9.41128H45.9377L45.3946 10.754H43.4003L46.4511 3.84281H48.3763L51.437 10.754H49.4032L48.8601 9.41128ZM48.2875 7.96979L47.3989 5.7582L46.5103 7.96979H48.2875ZM55.1003 8.91762H54.034V10.754H52.0791V3.84281H55.2385C55.8638 3.84281 56.4069 3.94812 56.8676 4.15875C57.3284 4.36279 57.6838 4.65899 57.9339 5.04733C58.184 5.4291 58.3091 5.87997 58.3091 6.39996C58.3091 6.9002 58.1906 7.33791 57.9537 7.71309C57.7233 8.08169 57.3909 8.3713 56.9565 8.58193L58.4473 10.754H56.3542L55.1003 8.91762ZM56.3345 6.39996C56.3345 6.07743 56.2324 5.82731 56.0284 5.6496C55.8244 5.47188 55.5216 5.38302 55.1201 5.38302H54.034V7.40702H55.1201C55.5216 7.40702 55.8244 7.32145 56.0284 7.15032C56.2324 6.9726 56.3345 6.72248 56.3345 6.39996ZM66.051 3.84281V10.754H64.4417L61.3909 7.07133V10.754H59.4755V3.84281H61.0848L64.1356 7.5255V3.84281H66.051ZM34.8399 22.8923C34.1159 22.8923 33.4643 22.7409 32.885 22.4381C32.3124 22.1287 31.8615 21.7009 31.5324 21.1546C31.2033 20.6083 31.0388 19.9895 31.0388 19.2984C31.0388 18.6073 31.2033 17.9886 31.5324 17.4423C31.8615 16.8959 32.3124 16.4714 32.885 16.1686C33.4643 15.8593 34.1159 15.7046 34.8399 15.7046C35.4718 15.7046 36.0412 15.8165 36.548 16.0403C37.0548 16.2641 37.4761 16.5866 37.8118 17.0078L36.5677 18.1334C36.1201 17.5936 35.5771 17.3238 34.9387 17.3238C34.5635 17.3238 34.2278 17.4061 33.9316 17.5706C33.642 17.7352 33.4149 17.9688 33.2503 18.2716C33.0924 18.5678 33.0134 18.9101 33.0134 19.2984C33.0134 19.6868 33.0924 20.0323 33.2503 20.3351C33.4149 20.6313 33.642 20.8617 33.9316 21.0262C34.2278 21.1908 34.5635 21.2731 34.9387 21.2731C35.5771 21.2731 36.1201 21.0032 36.5677 20.4635L37.8118 21.589C37.4761 22.0102 37.0548 22.3328 36.548 22.5566C36.0412 22.7804 35.4718 22.8923 34.8399 22.8923ZM43.4431 20.0192H41.7746V21.6482H40.2541V20.0192H38.5756V18.5777H40.2541V16.9486H41.7746V18.5777H43.4431V20.0192ZM49.6246 20.0192H47.956V21.6482H46.4356V20.0192H44.7571V18.5777H46.4356V16.9486H47.956V18.5777H49.6246V20.0192Z" fill="#007EFA"/>
</svg>
