<svg width="4082" height="1024" viewBox="0 0 4082 1024" fill="none" xmlns="http://www.w3.org/2000/svg">
<path fill-rule="evenodd" clip-rule="evenodd" d="M74 511C74 269.099 270.099 73 512 73C753.901 73 950 269.099 950 511C950 743.412 768.983 933.546 540.244 948.104V949H74V511.422C74.0001 511.281 74 511.141 74 511Z" fill="#007EFA"/>
<path fill-rule="evenodd" clip-rule="evenodd" d="M74 511C74 269.099 270.099 73 512 73C753.901 73 950 269.099 950 511C950 743.412 768.983 933.546 540.244 948.104V949H74V511.422C74.0001 511.281 74 511.141 74 511Z" fill="#4BA6FF"/>
<mask id="mask0" mask-type="alpha" maskUnits="userSpaceOnUse" x="74" y="73" width="876" height="876">
<path fill-rule="evenodd" clip-rule="evenodd" d="M74 511C74 269.099 270.099 73 512 73C753.901 73 950 269.099 950 511C950 743.412 768.983 933.546 540.244 948.104V949H74V511.422C74.0001 511.281 74 511.141 74 511Z" fill="white"/>
</mask>
<g mask="url(#mask0)">
<path fill-rule="evenodd" clip-rule="evenodd" d="M575.312 1510.37C283 268.826 1691.25 306.972 1431.92 -737.89C1172.59 -1782.75 790.081 -535.294 439.245 -535.294C88.409 -535.294 -154.547 -507.864 -196 99.6558C-237.453 707.175 552.296 2350.94 575.312 1510.37Z" fill="#1F90FE"/>
<path fill-rule="evenodd" clip-rule="evenodd" d="M48.5313 992.101C-122.963 279.462 1284.5 345.568 1084.49 -453.222C884.474 -1252.01 545.646 -729.538 194.964 -729.538C-155.717 -729.538 -440 -445.247 -440 -94.5559C-440 256.135 220.026 1704.74 48.5313 992.101Z" fill="#007EFA"/>
</g>
<path d="M639.26 617.936L636.633 616.388L635.128 619.04C609.064 664.962 559.417 695.987 502.953 695.987C419.183 695.987 350.919 627.723 350.919 543.953C350.919 460.183 419.183 391.919 502.953 391.919C559.413 391.919 609.054 422.938 635.12 469.483L636.604 472.135L639.236 470.616L721.499 423.157L724.087 421.664L722.605 419.07C679.069 342.882 597.105 291 502.953 291C363.347 291 250 404.347 250 543.953C250 683.558 363.347 796.905 502.953 796.905C596.459 796.905 678.425 745.668 721.966 670.11L723.45 667.536L720.89 666.028L639.26 617.936Z" fill="white" stroke="white" stroke-width="6"/>
<path d="M1145.59 213.968H1212.32V396.961H1324.88V449.871H1145.59V213.968ZM1543.68 398.309V449.871H1354.28V213.968H1539.3V265.53H1420.33V305.296H1525.14V355.173H1420.33V398.309H1543.68ZM1741.76 404.038H1642.01L1623.47 449.871H1555.4L1659.53 213.968H1725.25L1829.72 449.871H1760.3L1741.76 404.038ZM1722.22 354.836L1691.88 279.347L1661.55 354.836H1722.22ZM1954.76 387.188H1918.36V449.871H1851.64V213.968H1959.48C1980.82 213.968 1999.36 217.563 2015.08 224.752C2030.81 231.717 2042.94 241.827 2051.48 255.083C2060.02 268.113 2064.29 283.503 2064.29 301.252C2064.29 318.327 2060.24 333.268 2052.15 346.074C2044.29 358.655 2032.94 368.541 2018.12 375.73L2069 449.871H1997.56L1954.76 387.188ZM1996.89 301.252C1996.89 290.243 1993.4 281.706 1986.44 275.64C1979.47 269.574 1969.14 266.541 1955.43 266.541H1918.36V335.627H1955.43C1969.14 335.627 1979.47 332.706 1986.44 326.864C1993.4 320.798 1996.89 312.261 1996.89 301.252ZM2328.54 213.968V449.871H2273.61L2169.48 324.168V449.871H2104.1V213.968H2159.03L2263.16 339.671V213.968H2328.54ZM2597.3 454.589C2572.59 454.589 2550.34 449.422 2530.57 439.087C2511.03 428.527 2495.64 413.924 2484.4 395.276C2473.17 376.629 2467.55 355.51 2467.55 331.92C2467.55 308.329 2473.17 287.21 2484.4 268.563C2495.64 249.915 2511.03 235.424 2530.57 225.089C2550.34 214.53 2572.59 209.25 2597.3 209.25C2618.87 209.25 2638.3 213.069 2655.6 220.708C2672.9 228.347 2687.28 239.356 2698.74 253.735L2656.28 292.153C2641 273.73 2622.46 264.519 2600.67 264.519C2587.86 264.519 2576.41 267.327 2566.29 272.944C2556.41 278.561 2548.66 286.536 2543.04 296.871C2537.65 306.981 2534.95 318.664 2534.95 331.92C2534.95 345.175 2537.65 356.97 2543.04 367.305C2548.66 377.415 2556.41 385.279 2566.29 390.895C2576.41 396.512 2587.86 399.32 2600.67 399.32C2622.46 399.32 2641 390.109 2656.28 371.686L2698.74 410.105C2687.28 424.483 2672.9 435.492 2655.6 443.131C2638.3 450.77 2618.87 454.589 2597.3 454.589ZM1253.43 605.968C1274.78 605.968 1293.31 609.563 1309.04 616.752C1324.76 623.717 1336.9 633.827 1345.43 647.083C1353.97 660.113 1358.24 675.503 1358.24 693.252C1358.24 711.001 1353.97 726.391 1345.43 739.422C1336.9 752.453 1324.76 762.563 1309.04 769.752C1293.31 776.717 1274.78 780.199 1253.43 780.199H1212.32V841.871H1145.59V605.968H1253.43ZM1249.39 727.627C1263.09 727.627 1273.43 724.706 1280.39 718.864C1287.36 712.798 1290.84 704.261 1290.84 693.252C1290.84 682.243 1287.36 673.706 1280.39 667.64C1273.43 661.574 1263.09 658.541 1249.39 658.541H1212.32V727.627H1249.39ZM1496.9 779.188H1460.5V841.871H1393.77V605.968H1501.62C1522.96 605.968 1541.49 609.563 1557.22 616.752C1572.95 623.717 1585.08 633.827 1593.62 647.083C1602.16 660.113 1606.42 675.503 1606.42 693.252C1606.42 710.327 1602.38 725.268 1594.29 738.074C1586.43 750.655 1575.08 760.541 1560.25 767.73L1611.14 841.871H1539.7L1496.9 779.188ZM1539.02 693.252C1539.02 682.243 1535.54 673.706 1528.58 667.64C1521.61 661.574 1511.28 658.541 1497.57 658.541H1460.5V727.627H1497.57C1511.28 727.627 1521.61 724.706 1528.58 718.864C1535.54 712.798 1539.02 704.261 1539.02 693.252ZM1765.2 846.589C1740.26 846.589 1717.79 841.309 1697.8 830.75C1678.03 820.19 1662.41 805.587 1650.95 786.939C1639.72 768.292 1634.1 747.285 1634.1 723.92C1634.1 700.554 1639.72 679.547 1650.95 660.9C1662.41 642.252 1678.03 627.649 1697.8 617.089C1717.79 606.53 1740.26 601.25 1765.2 601.25C1790.14 601.25 1812.49 606.53 1832.26 617.089C1852.26 627.649 1867.87 642.252 1879.11 660.9C1890.56 679.547 1896.29 700.554 1896.29 723.92C1896.29 747.285 1890.56 768.292 1879.11 786.939C1867.87 805.587 1852.26 820.19 1832.26 830.75C1812.49 841.309 1790.14 846.589 1765.2 846.589ZM1765.2 791.32C1777.11 791.32 1787.89 788.512 1797.55 782.895C1807.21 777.279 1814.85 769.415 1820.47 759.305C1826.08 748.97 1828.89 737.175 1828.89 723.92C1828.89 710.664 1826.08 698.981 1820.47 688.871C1814.85 678.536 1807.21 670.561 1797.55 664.944C1787.89 659.327 1777.11 656.519 1765.2 656.519C1753.29 656.519 1742.51 659.327 1732.85 664.944C1723.19 670.561 1715.55 678.536 1709.93 688.871C1704.31 698.981 1701.51 710.664 1701.51 723.92C1701.51 737.175 1704.31 748.97 1709.93 759.305C1715.55 769.415 1723.19 777.279 1732.85 782.895C1742.51 788.512 1753.29 791.32 1765.2 791.32ZM2092.3 718.864H2151.27V816.596C2137.79 826.257 2122.29 833.671 2104.77 838.838C2087.24 844.005 2069.72 846.589 2052.19 846.589C2027.48 846.589 2005.24 841.422 1985.47 831.087C1965.7 820.527 1950.19 805.924 1938.96 787.276C1927.73 768.629 1922.11 747.51 1922.11 723.92C1922.11 700.329 1927.73 679.21 1938.96 660.563C1950.19 641.915 1965.81 627.424 1985.8 617.089C2005.8 606.53 2028.38 601.25 2053.54 601.25C2075.56 601.25 2095.33 604.957 2112.85 612.371C2130.38 619.785 2144.98 630.457 2156.67 644.386L2114.2 682.805C2098.25 665.281 2079.15 656.519 2056.91 656.519C2036.69 656.519 2020.4 662.697 2008.05 675.054C1995.69 687.186 1989.51 703.475 1989.51 723.92C1989.51 736.95 1992.32 748.633 1997.94 758.968C2003.55 769.078 2011.42 777.054 2021.53 782.895C2031.64 788.512 2043.21 791.32 2056.24 791.32C2069.04 791.32 2081.06 788.737 2092.3 783.569V718.864ZM2299.7 779.188H2263.3V841.871H2196.58V605.968H2304.42C2325.76 605.968 2344.3 609.563 2360.02 616.752C2375.75 623.717 2387.88 633.827 2396.42 647.083C2404.96 660.113 2409.23 675.503 2409.23 693.252C2409.23 710.327 2405.18 725.268 2397.1 738.074C2389.23 750.655 2377.89 760.541 2363.06 767.73L2413.95 841.871H2342.5L2299.7 779.188ZM2341.83 693.252C2341.83 682.243 2338.34 673.706 2331.38 667.64C2324.41 661.574 2314.08 658.541 2300.37 658.541H2263.3V727.627H2300.37C2314.08 727.627 2324.41 724.706 2331.38 718.864C2338.34 712.798 2341.83 704.261 2341.83 693.252ZM2607.09 796.038H2507.34L2488.81 841.871H2420.73L2524.87 605.968H2590.58L2695.05 841.871H2625.63L2607.09 796.038ZM2587.55 746.836L2557.22 671.347L2526.89 746.836H2587.55ZM2929.96 841.871L2929.28 716.842L2868.62 818.618H2838.97L2778.64 720.212V841.871H2716.97V605.968H2771.9L2854.8 742.118L2935.69 605.968H2990.62L2991.29 841.871H2929.96ZM3254.49 841.871L3253.82 716.842L3193.16 818.618H3163.5L3103.18 720.212V841.871H3041.51V605.968H3096.44L3179.34 742.118L3260.22 605.968H3315.15L3315.83 841.871H3254.49ZM3366.04 605.968H3432.77V841.871H3366.04V605.968ZM3707.69 605.968V841.871H3652.76L3548.62 716.168V841.871H3483.24V605.968H3538.17L3642.31 731.671V605.968H3707.69ZM3915.81 718.864H3974.79V816.596C3961.31 826.257 3945.8 833.671 3928.28 838.838C3910.76 844.005 3893.23 846.589 3875.71 846.589C3850.99 846.589 3828.75 841.422 3808.98 831.087C3789.21 820.527 3773.71 805.924 3762.47 787.276C3751.24 768.629 3745.62 747.51 3745.62 723.92C3745.62 700.329 3751.24 679.21 3762.47 660.563C3773.71 641.915 3789.32 627.424 3809.32 617.089C3829.31 606.53 3851.89 601.25 3877.05 601.25C3899.07 601.25 3918.84 604.957 3936.37 612.371C3953.89 619.785 3968.5 630.457 3980.18 644.386L3937.72 682.805C3921.76 665.281 3902.67 656.519 3880.42 656.519C3860.2 656.519 3843.92 662.697 3831.56 675.054C3819.2 687.186 3813.02 703.475 3813.02 723.92C3813.02 736.95 3815.83 748.633 3821.45 758.968C3827.07 769.078 3834.93 777.054 3845.04 782.895C3855.15 788.512 3866.72 791.32 3879.75 791.32C3892.56 791.32 3904.58 788.737 3915.81 783.569V718.864Z" fill="#007EFA"/>
</svg>
