<svg width="101" height="39" viewBox="0 0 101 39" fill="none" xmlns="http://www.w3.org/2000/svg">
<path fill-rule="evenodd" clip-rule="evenodd" d="M0 18.6802C0 9.00413 7.84397 1.16016 17.52 1.16016C27.196 1.16016 35.04 9.00413 35.04 18.6802C35.04 27.9767 27.7993 35.582 18.6498 36.1643V36.2002H0V18.697C2.64748e-06 18.6914 0 18.6858 0 18.6802Z" fill="#007EFA"/>
<path fill-rule="evenodd" clip-rule="evenodd" d="M0 18.6802C0 9.00413 7.84397 1.16016 17.52 1.16016C27.196 1.16016 35.04 9.00413 35.04 18.6802C35.04 27.9767 27.7993 35.582 18.6498 36.1643V36.2002H0V18.697C2.64748e-06 18.6914 0 18.6858 0 18.6802Z" fill="#4BA6FF"/>
<mask id="mask0" mask-type="alpha" maskUnits="userSpaceOnUse" x="0" y="1" width="36" height="36">
<path fill-rule="evenodd" clip-rule="evenodd" d="M0 18.6802C0 9.00413 7.84397 1.16016 17.52 1.16016C27.196 1.16016 35.04 9.00413 35.04 18.6802C35.04 27.9767 27.7993 35.582 18.6498 36.1643V36.2002H0V18.697C2.64748e-06 18.6914 0 18.6858 0 18.6802Z" fill="white"/>
</mask>
<g mask="url(#mask0)">
<path fill-rule="evenodd" clip-rule="evenodd" d="M20.0525 58.6549C8.36001 8.99307 64.6901 10.5189 54.3169 -31.2756C43.9436 -73.07 28.6433 -23.1717 14.6098 -23.1717C0.576368 -23.1717 -9.14186 -22.0745 -10.8 2.22627C-12.4581 26.527 19.1318 92.2775 20.0525 58.6549Z" fill="#1F90FE"/>
<path fill-rule="evenodd" clip-rule="evenodd" d="M-1.01881 37.9243C-7.87858 9.41871 48.4199 12.063 40.4194 -19.8887C32.4189 -51.8403 18.8658 -30.9413 4.83852 -30.9413C-9.18873 -30.9413 -20.5601 -19.5696 -20.5601 -5.542C-20.5601 8.48565 5.84097 66.4298 -1.01881 37.9243Z" fill="#007EFA"/>
</g>
<path fill-rule="evenodd" clip-rule="evenodd" d="M10.8801 19.3519L18.3327 19.3519C19.6357 19.3448 20.69 18.1789 20.69 16.7416C20.69 15.3043 19.6357 14.1383 18.3327 14.1313L10.8801 14.1312V9.95996H18.4867C22.2386 9.95996 25.2801 13.0021 25.2801 16.7547C25.2801 20.5073 22.2386 23.5494 18.4867 23.5494H15.7326V30.04H10.8801V19.3519Z" fill="white"/>
<path d="M42.856 5.04H45.3904V11.9904H49.6656V14H42.856V5.04ZM58.1021 12.0416V14H50.9085V5.04H57.9357V6.9984H53.4173V8.5088H57.3981V10.4032H53.4173V12.0416H58.1021ZM65.7517 12.2592H61.9629L61.2589 14H58.6733L62.6285 5.04H65.1245L69.0925 14H66.4557L65.7517 12.2592ZM65.0093 10.3904L63.8573 7.5232L62.7053 10.3904H65.0093ZM73.9678 11.6192H72.5854V14H70.051V5.04H74.147C74.9576 5.04 75.6616 5.17653 76.259 5.4496C76.8563 5.71413 77.3171 6.09813 77.6414 6.6016C77.9656 7.09653 78.1278 7.68107 78.1278 8.3552C78.1278 9.00373 77.9742 9.5712 77.667 10.0576C77.3683 10.5355 76.9374 10.9109 76.3742 11.184L78.307 14H75.5934L73.9678 11.6192ZM75.5678 8.3552C75.5678 7.93707 75.4355 7.6128 75.171 7.3824C74.9064 7.152 74.5139 7.0368 73.9934 7.0368H72.5854V9.6608H73.9934C74.5139 9.6608 74.9064 9.54987 75.171 9.328C75.4355 9.0976 75.5678 8.77333 75.5678 8.3552ZM88.2908 5.04V14H86.2044L82.2492 9.2256V14H79.766V5.04H81.8524L85.8076 9.8144V5.04H88.2908ZM46.952 24.04C47.7626 24.04 48.4666 24.1765 49.064 24.4496C49.6613 24.7141 50.1221 25.0981 50.4464 25.6016C50.7706 26.0965 50.9328 26.6811 50.9328 27.3552C50.9328 28.0293 50.7706 28.6139 50.4464 29.1088C50.1221 29.6037 49.6613 29.9877 49.064 30.2608C48.4666 30.5253 47.7626 30.6576 46.952 30.6576H45.3904V33H42.856V24.04H46.952ZM46.7984 28.6608C47.3189 28.6608 47.7114 28.5499 47.976 28.328C48.2405 28.0976 48.3728 27.7733 48.3728 27.3552C48.3728 26.9371 48.2405 26.6128 47.976 26.3824C47.7114 26.152 47.3189 26.0368 46.7984 26.0368H45.3904V28.6608H46.7984ZM57.2085 29.7872V33H54.6741V29.7488L51.2565 24.04H53.9317L56.0565 27.5984L58.1813 24.04H60.6389L57.2085 29.7872ZM63.2182 26.0496H60.4662V24.04H68.4918V26.0496H65.7526V33H63.2182V26.0496ZM78.2008 24.04V33H75.6664V29.5056H72.2104V33H69.676V24.04H72.2104V27.4064H75.6664V24.04H78.2008ZM84.7469 33.1792C83.7997 33.1792 82.9463 32.9787 82.1869 32.5776C81.4359 32.1765 80.8429 31.6219 80.4077 30.9136C79.981 30.2053 79.7677 29.4075 79.7677 28.52C79.7677 27.6325 79.981 26.8347 80.4077 26.1264C80.8429 25.4181 81.4359 24.8635 82.1869 24.4624C82.9463 24.0613 83.7997 23.8608 84.7469 23.8608C85.6941 23.8608 86.5431 24.0613 87.2941 24.4624C88.0535 24.8635 88.6466 25.4181 89.0733 26.1264C89.5085 26.8347 89.7261 27.6325 89.7261 28.52C89.7261 29.4075 89.5085 30.2053 89.0733 30.9136C88.6466 31.6219 88.0535 32.1765 87.2941 32.5776C86.5431 32.9787 85.6941 33.1792 84.7469 33.1792ZM84.7469 31.08C85.1991 31.08 85.6087 30.9733 85.9757 30.76C86.3426 30.5467 86.6327 30.248 86.8461 29.864C87.0594 29.4715 87.1661 29.0235 87.1661 28.52C87.1661 28.0165 87.0594 27.5728 86.8461 27.1888C86.6327 26.7963 86.3426 26.4933 85.9757 26.28C85.6087 26.0667 85.1991 25.96 84.7469 25.96C84.2946 25.96 83.885 26.0667 83.5181 26.28C83.1511 26.4933 82.861 26.7963 82.6477 27.1888C82.4343 27.5728 82.3277 28.0165 82.3277 28.52C82.3277 29.0235 82.4343 29.4715 82.6477 29.864C82.861 30.248 83.1511 30.5467 83.5181 30.76C83.885 30.9733 84.2946 31.08 84.7469 31.08ZM99.8183 24.04V33H97.7319L93.7767 28.2256V33H91.2935V24.04H93.3799L97.3351 28.8144V24.04H99.8183Z" fill="#007EFA"/>
</svg>
